<svg xmlns="http://www.w3.org/2000/svg" viewBox="0 0 663.14 254.69"><defs><style>.cls-1{fill:#fff;}</style></defs><title>nome</title><g id="Camada_2" data-name="Camada 2"><g id="Camada_1-2" data-name="Camada 1"><path class="cls-1" d="M661.31,58.39A47.5,47.5,0,0,0,652,41c-8-8.5-17.76-17.83-26.2-26.4a46.28,46.28,0,0,0-14.92-10.4A50.2,50.2,0,0,0,590.47,0a55,55,0,0,0-20,3.75A59.69,59.69,0,0,0,554,13.39a58.34,58.34,0,0,0-12.66,14.55,55.78,55.78,0,0,0-7.24,18.74l-.07.38-.06.38a53.31,53.31,0,0,0-.67,7.06c-.92-.91-1.87-1.86-2.87-2.87a86.48,86.48,0,0,0-25.37-16.82c-12.61-5.59-27.56-8.42-44.41-8.42-17.36,0-33.22,2.65-47.16,7.86A116.81,116.81,0,0,0,377,55.8a109.09,109.09,0,0,0-24.93,32,127.11,127.11,0,0,0-7.53,17.86L328.94,90.07a72,72,0,0,0-27.66-17,98,98,0,0,0-32.09-5.16,109,109,0,0,0-32.55,4.93,98.78,98.78,0,0,0-15.42,6.27c-1.23-1.46-2.52-2.88-3.87-4.22L192.94,50.5a70.53,70.53,0,0,0-19-13.44c-10.65-5.22-23.16-7.93-37.2-8.06H33L0,227.62q12.26,12.13,24.48,24.47H123c16.09,0,30.89-2.5,44-7.45a108.6,108.6,0,0,0,34.76-21c.7-.63,1.36-1.28,2-1.93l11.83,11.84a72.14,72.14,0,0,0,27.8,16.29,101.76,101.76,0,0,0,31.67,4.81,113.6,113.6,0,0,0,32.16-4.59,95.3,95.3,0,0,0,29.42-14.39,89.6,89.6,0,0,0,22.66-24.25c1.17-1.84,2.25-3.75,3.28-5.7L386,229.22a84.71,84.71,0,0,0,25.67,17.09c12.66,5.56,28,8.38,45.53,8.38,17.15,0,32.81-2.55,46.56-7.58a116.22,116.22,0,0,0,36.32-21,108.62,108.62,0,0,0,25.13-31.59,122.81,122.81,0,0,0,12.49-37.29c.17-1.05.31-2.09.45-3.13h43.39l7.45-8.32c2.93-3.27,6.05-7.11,9.27-11.41a134.83,134.83,0,0,0,9.87-15.31,154,154,0,0,0,8.3-17.62,100.38,100.38,0,0,0,5.84-21.34A46.43,46.43,0,0,0,661.31,58.39ZM188.5,127.33a99.87,99.87,0,0,1-9.63,29.31,82.22,82.22,0,0,1-45.21,40.13q-15.48,5.85-35.16,5.85h-69L54.15,54h54.52l-.43,3.68A51.19,51.19,0,0,0,97.53,69.13a73.55,73.55,0,0,0-6.17,11,54.2,54.2,0,0,0-3.24,11.68h6.06a55.21,55.21,0,0,1,4.11-11.47,51.1,51.1,0,0,1,8.22-12.33A48.38,48.38,0,0,1,119,58.1,33.36,33.36,0,0,1,135.71,54q16,0,27.26,5.52a43.88,43.88,0,0,1,17.74,15.36,56.33,56.33,0,0,1,8.44,23.25A95.43,95.43,0,0,1,188.5,127.33Zm134.13,21.85a62.58,62.58,0,0,1-8.87,24.34A64.41,64.41,0,0,1,297.43,191a70.11,70.11,0,0,1-21.75,10.6,88.27,88.27,0,0,1-25.09,3.57,76.62,76.62,0,0,1-23.91-3.57A47.18,47.18,0,0,1,208.4,191a39.3,39.3,0,0,1-10.49-17.52q-3.14-10.5-1-24.34a64.93,64.93,0,0,1,9-23.8,65.76,65.76,0,0,1,16.34-17.63,72.38,72.38,0,0,1,21.85-11,83.72,83.72,0,0,1,25.09-3.79,72.66,72.66,0,0,1,23.91,3.79,47,47,0,0,1,18.17,11,42.33,42.33,0,0,1,10.49,17.63Q325,135.76,322.63,149.18Zm206-20.55a97.15,97.15,0,0,1-10,29.74,83.27,83.27,0,0,1-19.36,24.34,90.74,90.74,0,0,1-28.56,16.44q-16.55,6.06-38,6.06-21.19,0-35.48-6.27t-22.39-16.77a55.05,55.05,0,0,1-10.6-24.45,83.88,83.88,0,0,1,.11-29.09,100.35,100.35,0,0,1,9.84-29.42A83.86,83.86,0,0,1,393.5,74.54a91.28,91.28,0,0,1,28.77-16.87q16.77-6.27,38.4-6.28,20.11,0,34.29,6.28t22.5,16.76a55.82,55.82,0,0,1,11,24.56A83.48,83.48,0,0,1,528.6,128.63Zm84.59-77.24a75.39,75.39,0,0,1-4.44,16.34,126.71,126.71,0,0,1-6.92,14.71,108.72,108.72,0,0,1-8,12.44q-4.22,5.63-7.89,9.73h-31.8l.86-4.11a104.24,104.24,0,0,0,16.55-9.62,158.28,158.28,0,0,0,15.15-12.12A173.44,173.44,0,0,0,599.34,66.1a85.33,85.33,0,0,0,8.87-11.46L603.88,52a86.77,86.77,0,0,1-7.78,9.63q-4.33,4.65-8,8.33-4.55,4.34-9.08,8a21.24,21.24,0,0,1-9.42-2,18.51,18.51,0,0,1-6.92-5.73,22.52,22.52,0,0,1-3.78-8.55,27,27,0,0,1-.22-10.28,30.87,30.87,0,0,1,4-10.38,33.34,33.34,0,0,1,7.25-8.33,34.62,34.62,0,0,1,9.63-5.62A29.94,29.94,0,0,1,590.47,25a25.2,25.2,0,0,1,10.28,2.06,21,21,0,0,1,7.68,5.62A22.65,22.65,0,0,1,612.86,41,21.71,21.71,0,0,1,613.19,51.39Z"/><path class="cls-1" d="M463.92,82.55a16.83,16.83,0,0,0-9.31-2.38,21.48,21.48,0,0,0-10.16,2.38,23.5,23.5,0,0,0-8.33,8,56,56,0,0,0-6.6,14.71A188.95,188.95,0,0,0,422,151.34q-.22,9.32,1.62,14.93t5.62,8a17.32,17.32,0,0,0,9.41,2.38,21.23,21.23,0,0,0,9.85-2.27,22.29,22.29,0,0,0,8.11-7.79,58.49,58.49,0,0,0,6.6-14.92,184.06,184.06,0,0,0,5.3-23.69A148.58,148.58,0,0,0,471,105.26a49.17,49.17,0,0,0-1.63-14.71Q467.6,84.93,463.92,82.55Z"/><path class="cls-1" d="M270.28,114.78q-11.68,0-19,7a30.27,30.27,0,0,0-9.09,17.42,24.72,24.72,0,0,0,.11,9.52,19.26,19.26,0,0,0,3.57,7.89,17.94,17.94,0,0,0,6.71,5.3,21.93,21.93,0,0,0,9.52,1.95,27.76,27.76,0,0,0,10.6-1.95,28.05,28.05,0,0,0,8.43-5.3,28.43,28.43,0,0,0,6.06-7.89,32.34,32.34,0,0,0,3.25-9.52q1.73-10.17-3.47-17.31T270.28,114.78Z"/><path class="cls-1" d="M128.14,85.68q-3.46-2.06-9.3-2.05a15.67,15.67,0,0,0-9.52,2.7A20,20,0,0,0,103.26,94a54,54,0,0,0-3.89,12q-1.52,7-3,15.9L89,166.7h8.44a34.17,34.17,0,0,0,13.09-2.27,24.13,24.13,0,0,0,9.63-7.35,43.9,43.9,0,0,0,6.92-13.2,123.88,123.88,0,0,0,4.76-19.8,151.83,151.83,0,0,0,2.27-19A39.8,39.8,0,0,0,133,92.5,11.23,11.23,0,0,0,128.14,85.68Z"/></g></g></svg>