<svg id="projeto" xmlns="http://www.w3.org/2000/svg" viewBox="0 0 890.77 1118.24"><defs><style>.cls-1{fill:#1a1a1a;}.cls-2{fill:#754c24;}.cls-3{fill:#fff;}</style></defs><title>Prancheta 2</title><g id="final_less_closed" data-name="final less closed"><path class="cls-1" d="M738.56,754.72c-.72-.09-1.2-.64-1.16-.79A6.73,6.73,0,0,1,738.56,754.72Z"/><path class="cls-1" d="M498.49,564.1c-.13,1-.33,3.24,0,0Z"/><path class="cls-1" d="M496.66,637.17a.66.66,0,0,0,0,.14C496.79,638.35,497.45,641.23,496.66,637.17Z"/><path class="cls-1" d="M498.41,564.74a.59.59,0,0,1,0-.14.28.28,0,0,1,0-.09,1,1,0,0,1,0-.17v0l0-.22h0a.68.68,0,0,0,0-.14c9.87-66.4,31.33-133.18,58.4-189.56,114.38,36.95,355.42-10.45,330.86-162.67-6.26-20.12-22.52-37.75-43.67-41.13-9.2-87.88-102.46-84.33-123.39-4.91-19.73-8.42-43.11,2.17-54.7,20-34.24,56,3.81,137.57-93.89,115.44,12.65-98.73-75.47-160-162.16-121.42-23.65-11.58,43.81-64.3.88-99.58,15.75-67.63-31.35-101.25-86.72-66.14C304-1.23,274.27,7.65,258.43,26.64c-35.49,39.1-38.05,103.67-9.42,148,23.82,34,58,56.41,92.38,78.62-28.62,14.24-58.49,32.59-73.31,61.35C192.63,212.18,72.23,211.16,16.2,311.85-35.25,415,40.79,525.67,137.31,557.16c-9.79,528.58,141.2,472.18,186,483H323c66.07,7.31,107.35,81.84,177.56,78.26,71.28-4.21,68.68-64.78,96.37-104.65,17.34-21.58,45.78-32.58,69.62-47.54a213.39,213.39,0,0,0,66.51-62.93c33.42-42.66,71-183.21-2.92-180.31-68.81,10.74-128.91,53.88-187.49,12.38-27.48-21.06-40.25-59.7-45.86-97.13l0-.16,0-.16a.88.88,0,0,1,0-.16c0-.14-.05-.28-.06-.42s0-.2-.05-.3,0,.11,0,.17c-2.7-23-1.41-48.3,1.72-72.17ZM565.3,330.18c74.47,19.15,109.17-20.95,113.35-85.35,2.65-45.8,35.3-78.75,38.22-24.32,0-.25-.07-.49-.1-.74,2,19.65-8.34,33.3-3.39,43,35.34,36.49,36.55-50.72,29.69-68.48C766.35,98,820.51,137.15,813.79,184c-1.9,19.08-12,34.93-16.81,53.48-.29,9.43,9.19,17,19,14.47,13.55-3.48,22.58-43.81,25.11-51.42,15.19,4.63,21.8,24.08,19.29,40C832.51,383.86,545.88,367,545,330.72,549.62,326.44,558.16,328.35,565.3,330.18ZM314.73,198.64c-100.41-70.43-39.81-171.09-11-161.82-15,17.12-36.15,97.15,7,74.41,4.48-4.57,4.61-10.19,4.28-17.51,3.49-68.18,85.85-93.41,65.95-19.06-27.75,7.43-52.72,47.43-54.8,69.63.35,14.57,21.21,19.12,28.11,6,5.39-15.18,12.05-29.69,24.7-40.94,24-20.22,16.53,13.81,7.15,25.92-9.84,16.52-17,39.27-5.15,57.81-12.36,7-25.22,16.16-35.72,27C335.2,213.5,324.83,206.39,314.73,198.64ZM505.3,1088.11l1.35-.18A4.63,4.63,0,0,1,505.3,1088.11Zm29.4-16.61c.28-.37.66-.9.77-1.09A3.73,3.73,0,0,1,534.7,1071.5Zm205.64-314-.45-1.12A2.59,2.59,0,0,1,740.34,757.46Zm-1-2-.69-.86A4.51,4.51,0,0,1,739.34,755.44ZM586.71,781.9c49,5.41,105-20.57,139.94-28.81,6.89-.78,5.48-.68,10.75.84,0-.19.52.4,1.37.81l-.21,0c13.06,30.58-6.82,95.39-22.46,119.15C674.83,946,618.82,948,580.54,987.51c-38,35.82-26.56,108.15-92.4,100.38.24,0,3,.24.84,0a105.66,105.66,0,0,1-23.89-6.43c-85.52-46.2-81.61-69.75-172.44-74.59l.34,0-.57-.06h.23c-14.48-2-30.29-5.62-43.22-15.47l.19.11c-88-75.1-83.41-348.26-82.46-425.69,40.6,13.34,42.57-15.7,28.49-24.54C152.37,532.89,110,518.47,77.89,487c-93.45-91.21-37.84-219.5,57.2-220.22,82.38,3.46,125.65,84.71,157.44,150.43,3.82,7,14.74,10.07,21.86,4.43,21.16-11.37-29.36-77.31-32.78-87.5,29.94-2.33,181.66-102.74,83.45-91.41,98.58-88.38,187.86-33.69,178,56.44-32.85,7.27-36.48,43.69-13.13,62.33a662.14,662.14,0,0,0-26.71,64C417.86,659.18,492.47,775.94,586.71,781.9Z"/><path class="cls-2" d="M386.09,135.28c-9.84,16.52-17,39.27-5.15,57.81-12.36,7-25.22,16.16-35.72,27-10-6.57-20.39-13.68-30.49-21.43-100.41-70.43-39.81-171.09-11-161.82-15,17.12-36.15,97.15,7,74.41,4.48-4.57,4.61-10.19,4.28-17.51,3.49-68.18,85.85-93.41,65.95-19.06-27.75,7.43-52.72,47.43-54.8,69.63.35,14.57,21.21,19.12,28.11,6,5.39-15.18,12.05-29.69,24.7-40.94C402.94,89.14,395.47,123.17,386.09,135.28Z"/><path class="cls-2" d="M860.37,240.46C832.51,383.86,545.88,367,545,330.72c4.64-4.28,13.18-2.37,20.32-.54,74.47,19.15,109.17-20.95,113.35-85.35,2.65-45.8,35.3-78.75,38.22-24.32,0-.25-.07-.49-.1-.74,2,19.65-8.34,33.3-3.39,43,35.34,36.49,36.55-50.72,29.69-68.48C766.35,98,820.51,137.15,813.79,184c-1.9,19.08-12,34.93-16.81,53.48-.29,9.43,9.19,17,19,14.47,13.55-3.48,22.58-43.81,25.11-51.42C856.27,205.11,862.88,224.56,860.37,240.46Z"/><path class="cls-3" d="M738.56,754.72c-.72-.09-1.2-.64-1.16-.79-5.27-1.52-3.86-1.62-10.75-.84-34.89,8.24-90.92,34.22-139.94,28.81-94.24-6-168.85-122.72-83.53-356.39a662.14,662.14,0,0,1,26.71-64c-23.35-18.64-19.72-55.06,13.13-62.33,9.9-90.13-79.38-144.82-178-56.44,98.21-11.33-53.51,89.08-83.45,91.41,3.42,10.19,53.94,76.13,32.78,87.5-7.12,5.64-18,2.56-21.86-4.43-31.79-65.72-75.06-147-157.44-150.43-95,.72-150.65,129-57.2,220.22,32.14,31.44,74.48,45.86,117.76,54.26,14.08,8.84,12.11,37.88-28.49,24.54-.95,77.43-5.53,350.59,82.46,425.69l-.19-.11c12.93,9.85,28.74,13.48,43.22,15.47,90.83,4.84,86.92,28.39,172.44,74.59A105.66,105.66,0,0,0,489,1087.9c2.16.23-.6,0-.84,0,65.84,7.77,54.41-64.56,92.4-100.38C618.82,948,674.83,946,716.1,873.87,731.74,850.11,751.62,785.3,738.56,754.72ZM57.11,307.34c11.85-11.54,46.88-29.41,57.32-7C128.52,320.18,31,335,57.11,307.34ZM210.83,422.41c-3.6,27.85-37.65,46.27-41.68,5.69.06-10-16.82-97.25,12.87-84.31C201.62,353.11,216,394.75,210.83,422.41Zm231,4.67c-85.66,57.82-53.61-110.65,13-152.94C502.15,249.59,510.85,365,441.86,427.08Z"/><path class="cls-1" d="M57.11,307.34c11.85-11.54,46.88-29.41,57.32-7C128.52,320.18,31,335,57.11,307.34Z"/><path class="cls-1" d="M210.83,422.41c-3.6,27.85-37.65,46.27-41.68,5.69.06-10-16.82-97.25,12.87-84.31C201.62,353.11,216,394.75,210.83,422.41Z"/><path class="cls-1" d="M441.86,427.08c-85.66,57.82-53.61-110.65,13-152.94C502.15,249.59,510.85,365,441.86,427.08Z"/></g></svg>